<?xml version="1.0" encoding="UTF-8"?>
<svg id="Layer_1" data-name="Layer 1" xmlns="http://www.w3.org/2000/svg" xmlns:xlink="http://www.w3.org/1999/xlink" viewBox="0 0 350 76.09">
  <defs>
    <style>
      .cls-1 {
        fill: url(#linear-gradient-5);
      }

      .cls-2 {
        fill: url(#linear-gradient-6);
      }

      .cls-3 {
        fill: url(#linear-gradient-4);
      }

      .cls-4 {
        fill: url(#linear-gradient-3);
      }

      .cls-5 {
        fill: url(#linear-gradient-2);
      }

      .cls-6 {
        fill: url(#linear-gradient);
      }
    </style>
    <linearGradient id="linear-gradient" x1="220.76" y1="45.36" x2="268.41" y2="45.36" gradientUnits="userSpaceOnUse">
      <stop offset="0" stop-color="#000"/>
      <stop offset=".37" stop-color="#010101"/>
      <stop offset=".51" stop-color="#080808"/>
      <stop offset=".6" stop-color="#141414"/>
      <stop offset=".68" stop-color="#252525"/>
      <stop offset=".75" stop-color="#3b3b3b"/>
      <stop offset=".8" stop-color="#565656"/>
      <stop offset=".86" stop-color="#777"/>
      <stop offset=".91" stop-color="#9c9c9c"/>
      <stop offset=".95" stop-color="#c7c7c7"/>
      <stop offset=".99" stop-color="#f5f5f5"/>
      <stop offset="1" stop-color="#fff"/>
    </linearGradient>
    <linearGradient id="linear-gradient-2" x1="271.93" y1="38.17" x2="319.17" y2="38.17" xlink:href="#linear-gradient"/>
    <linearGradient id="linear-gradient-3" x1="122.16" y1="30.12" x2="165.8" y2="30.12" xlink:href="#linear-gradient"/>
    <linearGradient id="linear-gradient-4" x1="169.87" y1="38.18" x2="217.17" y2="38.18" xlink:href="#linear-gradient"/>
    <linearGradient id="linear-gradient-5" x1="323.16" y1="37.62" x2="349.21" y2="37.62" xlink:href="#linear-gradient"/>
    <linearGradient id="linear-gradient-6" x1="0" y1="29.11" x2="110.39" y2="29.11" xlink:href="#linear-gradient"/>
  </defs>
  <g>
    <path class="cls-6" d="M233.46,56.6l-.51,19.18-12.2-.04.48-38.61c.15-12.22,9.08-21.26,20.99-22.1,7.48-.53,14.25,1.84,19.23,6.84,5.2,5.21,7.51,11.99,6.84,19.58-1.02,11.67-10.4,20.09-22.17,19.92-4.69-.06-8.38-1.44-12.67-4.77ZM256.37,38.16c0-6.41-5.19-11.6-11.6-11.6s-11.6,5.19-11.6,11.6,5.19,11.6,11.6,11.6c6.41,0,11.6-5.2,11.6-11.6Z"/>
    <path class="cls-5" d="M294.86,50.11c4.39.24,7.83-.97,10.44-4.05l12.52.18c-3.21,10.19-12.14,14.96-21.87,15.15-13.64.26-24.06-9.73-24.01-23.31.05-13.29,10.04-23,23.34-23.15,11.77-.12,22.01,7.34,23.61,19.34.35,2.64.29,5.48.25,8.44l-34,.04c1.22,4.51,4.95,7.1,9.73,7.36ZM305.77,32.49c-2.2-5.14-6.39-6.32-10.75-6.23-3.79.09-7.84,1.93-9.4,6.28l20.15-.06Z"/>
    <path class="cls-4" d="M165.8,60.12l-12.03.12-.13-23.72c-.03-5.79-3.83-9.98-9.34-10.08-5.03-.09-9.8,3.43-9.84,9.29l-.18,24.51-12.11-.1V.11S134.28,0,134.28,0l.12,19.5c3.68-3.19,7.43-4.68,12.36-4.52,10.15.32,18.62,7.83,18.74,18.31l.3,26.83Z"/>
    <path class="cls-3" d="M217.17,38.18c0,13.06-10.59,23.65-23.65,23.65s-23.65-10.59-23.65-23.65,10.59-23.65,23.65-23.65c13.06,0,23.65,10.59,23.65,23.65ZM205.15,38.17c0-6.43-5.21-11.65-11.65-11.65s-11.65,5.21-11.65,11.65,5.21,11.65,11.65,11.65c6.43,0,11.65-5.21,11.65-11.65Z"/>
    <path class="cls-1" d="M335.52,32.43l-.14,27.76-12.22.02.23-28.56c.07-8.72,6.83-15.58,15.35-16.37,3.5-.32,6.5-.23,10.34-.2l.13,11.26-7.79.25c-2.62.08-5.89,2.41-5.9,5.84Z"/>
  </g>
  <path class="cls-2" d="M96.22,58.19c-.39-30.63-46.32-31.14-47.08-.15-4.8.2-9.47.21-14.46.16.17-20.32-12.39-43.3-34.69-44.06L.06,0c21.05-.02,36.45,14.62,44.2,33.22,21.69-25.88,66.98-9.43,66.13,24.92l-14.16.05Z"/>
</svg>